<?xml version="1.0" standalone="no"?>
<!DOCTYPE svg PUBLIC "-//W3C//DTD SVG 20010904//EN"
 "http://www.w3.org/TR/2001/REC-SVG-20010904/DTD/svg10.dtd">
<svg version="1.0" xmlns="http://www.w3.org/2000/svg"
 width="32.000000pt" height="32.000000pt" viewBox="0 0 32.000000 32.000000"
 preserveAspectRatio="xMidYMid meet">
<metadata>
Created by potrace 1.10, written by Peter Selinger 2001-2011
</metadata>
<g transform="translate(0.000000,32.000000) scale(0.100000,-0.100000)"
fill="#000000" stroke="none">
<path d="M133 248 l4 -57 -29 25 c-53 44 -61 31 -23 -35 14 -24 22 -48 18 -51
-4 -4 -25 -13 -46 -20 -20 -6 -35 -16 -32 -21 4 -5 1 -9 -4 -9 -6 0 -11 -4
-11 -10 0 -5 8 -7 18 -3 11 4 9 -1 -7 -14 -14 -11 -20 -23 -14 -26 5 -3 25 7
44 22 26 23 41 28 65 24 24 -4 46 3 93 31 34 20 72 36 84 37 12 1 2 6 -23 11
-30 7 -50 7 -61 -1 -18 -11 -29 3 -29 37 0 9 -11 40 -25 67 l-25 50 3 -57z"/>
</g>
</svg>
